# xmcd CD database file
#
# Track frame offsets:
#	150
#	37696
#	67328
#	93917
#	129231
#	152126
#	174299
#	227839
#	252954
#	277988
#
# Disc length: 4278 seconds
#
# Revision: 0
# Processed by: cddbd v1.5.2PL0 Copyright (c) Steve Scherf et al.
# Submitted via: CDex 1.70beta2
#
DISCID=7a10b40a
DTITLE=Jazz 89 KUVO - Live at the Oasis Vol. 5
DYEAR=2002
DGENRE=Jazz
TTITLE0=Lenore Raphael - Well You Needn't
TTITLE1=Dianne Reeves - Misty
TTITLE2=Eric Gunnison Trio - If You Ever Came To Me
TTITLE3=Dale Bruning Quartet - Sweedish Schnapps
TTITLE4=John Akai And The Ultraphonic Jazz Orchestra - A Little Minor Booze
TTITLE5=Teresa Carroll with the John Akai Group - It Don't Mean A Thing
TTITLE6=Organ Donors - Maiden Voyage
TTITLE7=Dave Hanson Trio - Autumn Leaves
TTITLE8=Joni Janak - Triste
TTITLE9=Ken Walker Sextet - Amsterdam After Dark
EXTD=YEAR: 2002
EXTT0=
EXTT1=
EXTT2=
EXTT3=
EXTT4=
EXTT5=
EXTT6=
EXTT7=
EXTT8=
EXTT9=
PLAYORDER=
